<svg xmlns="http://www.w3.org/2000/svg" xmlns:xlink="http://www.w3.org/1999/xlink" viewBox="0 0 144 108"><defs><style>.cls-1{isolation:isolate;}.cls-2{fill:#59575c;}.cls-3{fill:#732e8c;}.cls-4{fill:none;}.cls-5,.cls-6{mix-blend-mode:multiply;}.cls-5{fill:url(#linear-gradient);}.cls-6{opacity:0.67;fill:url(#linear-gradient-2);}</style><linearGradient id="linear-gradient" x1="62.46" y1="49.57" x2="72.4" y2="44.43" gradientUnits="userSpaceOnUse"><stop offset="0" stop-color="#fff" stop-opacity="0"/><stop offset="1"/></linearGradient><linearGradient id="linear-gradient-2" x1="77.61" y1="32.08" x2="84.01" y2="28.48" gradientUnits="userSpaceOnUse"><stop offset="0"/><stop offset="1" stop-color="#fff" stop-opacity="0"/></linearGradient></defs><g class="cls-1"><g id="Layer_1" data-name="Layer 1"><path class="cls-2" d="M135.7,60.34a2.47,2.47,0,0,1-1-.2,2.36,2.36,0,0,1-.8-.54,2.62,2.62,0,0,1-.54-.8,2.43,2.43,0,0,1-.19-1v0a2.43,2.43,0,0,1,.19-1,2.75,2.75,0,0,1,.54-.8,2.52,2.52,0,0,1,1.8-.75,2.31,2.31,0,0,1,1,.2,2.36,2.36,0,0,1,.8.54,2.51,2.51,0,0,1,.54.8,2.43,2.43,0,0,1,.19,1h0a2.48,2.48,0,0,1-.19,1,2.75,2.75,0,0,1-.54.8,2.7,2.7,0,0,1-.81.55A2.54,2.54,0,0,1,135.7,60.34Zm0-.22a2.31,2.31,0,0,0,2.13-1.41,2.44,2.44,0,0,0,.17-.9h0a2.39,2.39,0,0,0-.17-.89,2.18,2.18,0,0,0-.49-.73,2.31,2.31,0,0,0-1.63-.68,2.28,2.28,0,0,0-.91.19,2.31,2.31,0,0,0-.73.5,2.29,2.29,0,0,0-.49.73,2.43,2.43,0,0,0-.17.89v0a2.28,2.28,0,0,0,.65,1.62,2.3,2.3,0,0,0,1.64.67Zm-1-3.67h1.16a1.33,1.33,0,0,1,.45.07.92.92,0,0,1,.32.2.51.51,0,0,1,.15.21.68.68,0,0,1,.06.29h0a.69.69,0,0,1-.19.51,1.12,1.12,0,0,1-.48.26l.8,1h-.47l-.75-1h-.66v1h-.39Zm1.13,1.27a.74.74,0,0,0,.44-.12.4.4,0,0,0,.17-.35h0a.38.38,0,0,0-.16-.32.67.67,0,0,0-.43-.12h-.76v.92Z"/><path class="cls-2" d="M5.43,72.92v-.08A10.87,10.87,0,0,1,16.67,62.06c6.41,0,11.16,4.75,11.16,10.7v.08A10.86,10.86,0,0,1,16.6,83.61C10.19,83.61,5.43,78.86,5.43,72.92Zm16.61,0v-.08a5.49,5.49,0,0,0-5.44-5.71c-3.37,0-5.37,2.58-5.37,5.63v.08a5.5,5.5,0,0,0,5.44,5.72A5.31,5.31,0,0,0,22,72.92Z"/><path class="cls-2" d="M29.87,62.45h5.87v2.93c1.35-1.73,3.08-3.32,6.06-3.32,4.44,0,7,2.94,7,7.69v13.4H43V71.6c0-2.78-1.31-4.21-3.55-4.21s-3.67,1.43-3.67,4.21V83.15H29.87Z"/><path class="cls-2" d="M51,72.92v-.08c0-5.91,4.21-10.78,10.24-10.78,6.91,0,10.07,5.37,10.07,11.25,0,.46,0,1-.07,1.54H56.82a4.81,4.81,0,0,0,5.06,4.06,6.85,6.85,0,0,0,5-2.13l3.36,3a10.38,10.38,0,0,1-8.46,3.86C55.59,83.61,51,79.25,51,72.92Zm14.6-1.75c-.35-2.61-1.89-4.4-4.36-4.4s-4,1.74-4.48,4.4Z"/><path class="cls-2" d="M73,72.92v-.08A10.63,10.63,0,0,1,83.88,62.06a10.19,10.19,0,0,1,8.26,3.48L88.55,69.4a6.06,6.06,0,0,0-4.71-2.27c-2.94,0-5,2.58-5,5.63v.08c0,3.17,2,5.72,5.26,5.72a6.61,6.61,0,0,0,4.75-2.21l3.43,3.48a10.4,10.4,0,0,1-8.45,3.78A10.57,10.57,0,0,1,73,72.92Z"/><path class="cls-2" d="M93.2,77.21v-.08c0-4.53,3.44-6.61,8.34-6.61a14.75,14.75,0,0,1,5.06.85V71c0-2.43-1.51-3.78-4.45-3.78a15.13,15.13,0,0,0-5.71,1.12L95,63.88a18.37,18.37,0,0,1,8-1.67c3.2,0,5.52.86,7,2.32s2.23,3.83,2.23,6.61v12h-5.67V80.91a8,8,0,0,1-6.26,2.63C96.41,83.54,93.2,81.3,93.2,77.21Zm13.48-1.36v-1a9,9,0,0,0-3.75-.78c-2.51,0-4.05,1-4.05,2.86V77c0,1.59,1.31,2.51,3.2,2.51C104.82,79.48,106.68,78,106.68,75.85Z"/><path class="cls-2" d="M115.35,55h5.87V83.15h-5.87Z"/><path class="cls-2" d="M125.08,55H131V83.15h-5.87Z"/><path class="cls-3" d="M45,38.75v-.12c0-8.85,7.12-16,16.73-16s16.61,7.07,16.61,15.93v.11c0,8.86-7.13,16-16.72,16S45,47.6,45,38.75Zm25,0v-.12c0-4.43-3.19-8.32-7.92-8.32-4.9,0-7.82,3.77-7.82,8.21v.11c0,4.45,3.21,8.33,7.93,8.33C67.08,47,70,43.18,70,38.75Z"/><path class="cls-3" d="M70,38.74v-.11a15.3,15.3,0,0,1,15.62-15.5c5.61,0,9.11,1.89,11.9,5l-5.17,5.56c-1.89-2-3.79-3.28-6.78-3.28-4.23,0-7.23,3.72-7.23,8.12v.1c0,4.56,2.94,8.23,7.56,8.23,2.83,0,4.77-1.23,6.83-3.17l5,5a15,15,0,0,1-12.17,5.44A15.2,15.2,0,0,1,70,38.74Z"/><path class="cls-4" d="M62.08,30.31c-4.9,0-7.82,3.77-7.82,8.21v.11c0,4.45,3.21,8.33,7.93,8.33C67.08,47,70,43.18,70,38.75h0v-.11C70,34.2,66.81,30.31,62.08,30.31Z"/><path class="cls-5" d="M70,38.74h0C70,43.18,67.08,47,62.19,47l-.52,0v7.73a16.84,16.84,0,0,0,12.49-5.32A15.34,15.34,0,0,1,70,38.74Z"/><path class="cls-6" d="M85.62,23.13a15.47,15.47,0,0,0-11.39,4.75,15.64,15.64,0,0,1,4.11,10.64h0c0-4.39,3-8.11,7.23-8.11h.18V23.13Z"/></g></g></svg>